<?xml version="1.0" encoding="UTF-8" standalone="no"?>
<svg
   xmlns:dc="http://purl.org/dc/elements/1.1/"
   xmlns:cc="http://creativecommons.org/ns#"
   xmlns:rdf="http://www.w3.org/1999/02/22-rdf-syntax-ns#"
   xmlns:svg="http://www.w3.org/2000/svg"
   xmlns="http://www.w3.org/2000/svg"
   xmlns:sodipodi="http://sodipodi.sourceforge.net/DTD/sodipodi-0.dtd"
   xmlns:inkscape="http://www.inkscape.org/namespaces/inkscape"
   version="1.1"
   id="Layer_1"
   x="0px"
   y="0px"
   width="100px"
   height="100px"
   viewBox="0 0 100 100"
   enable-background="new 0 0 100 100"
   xml:space="preserve"
   inkscape:version="0.48.2 r9819"
   sodipodi:docname="noun_project_1899.svg"><metadata
   id="metadata3282"><rdf:RDF><cc:Work
       rdf:about=""><dc:format>image/svg+xml</dc:format><dc:type
         rdf:resource="http://purl.org/dc/dcmitype/StillImage" /></cc:Work></rdf:RDF></metadata><defs
   id="defs3280">
	
</defs><sodipodi:namedview
   pagecolor="#ffffff"
   bordercolor="#666666"
   borderopacity="1"
   objecttolerance="10"
   gridtolerance="10"
   guidetolerance="10"
   inkscape:pageopacity="0"
   inkscape:pageshadow="2"
   inkscape:window-width="1280"
   inkscape:window-height="741"
   id="namedview3278"
   showgrid="false"
   inkscape:zoom="5.05"
   inkscape:cx="12.376238"
   inkscape:cy="50"
   inkscape:window-x="0"
   inkscape:window-y="27"
   inkscape:window-maximized="1"
   inkscape:current-layer="Layer_1" />
<path
   inkscape:connector-curvature="0"
   id="path3276"
   d="m 34.17,62.932 1.099,0.273 C 39.601,57.922 43.084,50.99 37.823,43.77 32.383,36.299 30.366,26.628 32.752,17.442 36.532,2.886 42.756,0.366 57.405,0.43 c 5.008,0.022 15.456,1.76 18.607,6.126 0.792,1.095 -0.53,2.522 0.014,3.17 1.979,2.35 3.346,6.891 3.852,11.311 0.104,0.923 2.023,3.147 1.537,4.047 -0.989,1.821 -1.444,2.771 0.302,5.242 1.136,1.61 4.413,6.442 5.144,7.774 1.021,1.857 -4.852,1.917 -4.337,3.33 0.234,0.644 1.025,2.271 1.28,2.902 0.308,0.762 -1.519,1.247 -1.528,1.777 0.003,0.202 1.126,0.309 0.949,1.637 -0.108,0.817 -1.757,0.177 -1.851,3.282 -0.05,1.686 1.967,4.035 -1.403,6.168 -3.623,2.297 -16.219,-4.463 -17.27,8.309 -0.147,1.795 -0.103,3.277 0.08,4.547 l 1.9,0.473 c 0,0 0.624,3.211 1.39,6.51 0.45,0.602 0.896,1.207 1.307,1.869 2.723,4.393 7.992,9.795 8.916,15.326 0.419,2.518 0.566,4.053 0.603,4.979 H 17.021 c 0.052,-3.385 -1.78,-14.852 11.745,-29.113 l 0.37,-0.385 5.034,-6.779 0,0 z"
   style="fill:#ffffff;fill-opacity:1" />
</svg>