<?xml version="1.0" encoding="UTF-8" standalone="no"?>
<!-- Created with Inkscape (http://www.inkscape.org/) -->

<svg
   xmlns:dc="http://purl.org/dc/elements/1.1/"
   xmlns:cc="http://creativecommons.org/ns#"
   xmlns:rdf="http://www.w3.org/1999/02/22-rdf-syntax-ns#"
   xmlns:svg="http://www.w3.org/2000/svg"
   xmlns="http://www.w3.org/2000/svg"
   xmlns:sodipodi="http://sodipodi.sourceforge.net/DTD/sodipodi-0.dtd"
   xmlns:inkscape="http://www.inkscape.org/namespaces/inkscape"
   width="382.66702"
   height="382.07767"
   id="svg4269"
   version="1.1"
   inkscape:version="0.48.2 r9819"
   sodipodi:docname="Documento nuevo 7">
  <defs
     id="defs4271" />
  <sodipodi:namedview
     id="base"
     pagecolor="#ffffff"
     bordercolor="#666666"
     borderopacity="1.0"
     inkscape:pageopacity="0.0"
     inkscape:pageshadow="2"
     inkscape:zoom="0.35"
     inkscape:cx="-231.23003"
     inkscape:cy="456.37997"
     inkscape:document-units="px"
     inkscape:current-layer="layer1"
     showgrid="false"
     fit-margin-top="0"
     fit-margin-left="0"
     fit-margin-right="0"
     fit-margin-bottom="0"
     inkscape:window-width="1280"
     inkscape:window-height="741"
     inkscape:window-x="0"
     inkscape:window-y="27"
     inkscape:window-maximized="1" />
  <metadata
     id="metadata4274">
    <rdf:RDF>
      <cc:Work
         rdf:about="">
        <dc:format>image/svg+xml</dc:format>
        <dc:type
           rdf:resource="http://purl.org/dc/dcmitype/StillImage" />
        <dc:title></dc:title>
      </cc:Work>
    </rdf:RDF>
  </metadata>
  <g
     inkscape:label="Capa 1"
     inkscape:groupmode="layer"
     id="layer1"
     transform="translate(-277.51997,-495.60906)">
    <path
       style="fill:#ffffff;fill-opacity:1"
       inkscape:connector-curvature="0"
       id="path3480"
       d="m 660.18699,686.0582 c 0,106.72094 -84.31778,191.62854 -191.03872,191.62854 -106.13419,0 -191.6283,-84.9076 -191.6283,-191.62854 0,-105.54158 85.49411,-190.44914 191.6283,-190.44914 106.72397,0 191.03872,84.90756 191.03872,190.44914 z m -283.60845,48.93971 c -2.35855,-14.74079 -3.53768,-31.25055 -3.53768,-47.17073 0,-11.7927 0.59073,-21.22684 1.76988,-32.42995 -27.12026,-5.30665 -43.04324,-9.43417 -55.42551,-14.74082 -4.12446,14.15124 -6.48301,30.07142 -6.48301,45.40179 0,7.66544 0,15.33061 1.17683,21.81665 7.66823,8.84432 27.1233,20.63702 62.50134,27.12306 z m 32.42994,94.93131 C 395.44402,811.06091 386.59946,786.88595 380.703,758.58329 357.11762,753.27664 335.89381,746.7906 321.74261,739.1254 c 8.84432,21.81641 20.04743,41.27454 37.14701,57.19472 14.15124,15.32734 31.84013,25.94087 50.11886,33.6091 z M 328.22841,620.01916 c 5.30968,4.71707 14.15145,5.30665 48.93971,14.74079 6.48604,-37.7366 17.68915,-68.98435 35.37827,-92.56974 -20.04767,9.43418 -37.73682,17.68916 -53.65398,34.7885 -13.56442,12.38251 -23.58841,27.71287 -30.664,43.04045 z m 69.57417,119.10624 c 20.04743,3.53794 39.50556,5.30665 59.553,5.89646 v -83.13862 c -21.22683,-0.5884 -42.45366,-1.76988 -62.50137,-4.12749 0,10.61353 -0.58605,19.45813 -0.58605,30.07143 0,17.09934 1.17913,35.37804 3.53489,51.29822 z m 0,-101.41709 c 19.46088,1.76756 39.50556,2.9481 59.553,3.53768 v -109.6721 c 0,0 -0.59076,0 -1.17916,0 -26.53371,10.61632 -48.93691,51.89086 -58.37384,106.13442 z m 59.55603,204.0136 v -76.06303 c -18.27874,-0.5884 -36.55744,-1.76988 -54.24356,-3.53768 3.53488,15.33037 8.84153,28.89203 15.91715,41.27451 8.8446,21.2238 22.4032,38.3262 38.32641,38.3262 z M 479.7618,531.57692 v 109.66907 c 20.63726,-0.5884 40.09515,-1.76988 60.13979,-3.53768 -7.6652,-42.4539 -24.76175,-79.60094 -44.80942,-97.87661 -5.30362,-3.53768 -11.20008,-8.25478 -15.33037,-8.25478 z m 59.55301,208.13806 c 2.94833,-15.92018 3.53488,-34.19868 3.53488,-51.8878 0,-10.6133 0,-19.4579 -0.58608,-29.48185 -20.04744,1.76988 -40.68469,2.94833 -62.50133,3.53791 v 83.13862 c 20.63725,-0.5884 40.09534,-2.35852 59.55323,-5.30688 z m -4.71707,22.40622 c -18.27571,1.76988 -36.55441,2.94813 -54.83594,3.53768 v 76.06303 c 30.664,0 47.17074,-53.06723 54.83594,-79.60071 z m -9.43111,-220.52053 c 17.68609,22.99577 28.892,55.42571 34.78846,93.75188 31.84016,-5.89622 44.80918,-11.20307 49.52625,-14.74078 -16.50976,-36.55744 -47.76031,-66.03905 -84.31471,-79.0111 z m 89.03178,199.88328 c -15.33036,7.07562 -35.37804,12.97205 -57.19165,17.68916 -6.48581,28.30241 -14.74079,51.29519 -28.89507,70.75611 18.27874,-7.6652 36.55744,-18.27873 50.70868,-33.6091 16.50694,-15.33367 27.70981,-34.19892 35.37804,-54.83617 z m -50.11886,-53.65677 c 0,15.92018 -1.17912,33.01952 -2.9481,47.76054 61.32198,-10.02395 63.6805,-24.1752 63.6805,-49.52952 0,-14.74079 -2.35852,-30.66097 -7.07256,-44.81221 -11.20614,4.71707 -31.25385,11.79269 -54.8392,14.15124 1.17912,11.20311 1.17912,20.63725 1.17912,32.42995 z" />
  </g>
</svg>
